<?xml version="1.0" standalone="no"?>
<!DOCTYPE svg PUBLIC "-//W3C//DTD SVG 20010904//EN"
 "http://www.w3.org/TR/2001/REC-SVG-20010904/DTD/svg10.dtd">
<svg version="1.0" xmlns="http://www.w3.org/2000/svg"
 width="512.000000pt" height="512.000000pt" viewBox="0 0 512.000000 512.000000"
 preserveAspectRatio="xMidYMid meet">

<g transform="translate(0.000000,512.000000) scale(0.100000,-0.100000)"
fill="#000000" stroke="none">
<path d="M2498 5102 c-24 -11 -277 -252 -680 -649 -938 -922 -870 -851 -876
-914 -6 -64 15 -109 67 -142 35 -22 43 -22 409 -25 l372 -3 0 -933 0 -933 23
-33 c12 -18 35 -43 50 -54 28 -21 34 -21 697 -21 663 0 669 0 697 21 15 11 38
36 51 54 l22 33 0 933 0 933 373 3 c365 3 373 3 408 25 52 33 73 78 67 142 -6
63 62 -8 -876 914 -403 397 -656 638 -680 649 -20 10 -48 17 -62 17 -14 0 -42
-7 -62 -17z m609 -892 l536 -525 -261 -5 c-296 -6 -296 -6 -339 -90 l-23 -44
0 -923 0 -923 -460 0 -460 0 0 923 0 923 -22 44 c-44 84 -44 84 -340 90 l-261
5 539 528 c296 290 542 526 547 524 4 -1 249 -238 544 -527z"/>
<path d="M1897 1226 c-75 -27 -112 -82 -105 -156 6 -57 35 -102 82 -124 30
-14 105 -16 686 -16 581 0 656 2 686 16 49 23 77 68 82 128 5 60 -21 107 -78
140 -34 21 -49 21 -675 23 -522 2 -647 0 -678 -11z"/>
<path d="M1871 752 c-50 -25 -74 -63 -79 -124 -5 -63 21 -109 78 -142 34 -21
47 -21 690 -21 643 0 656 0 690 21 57 33 83 79 78 142 -5 61 -28 96 -78 123
-33 18 -71 19 -690 19 -604 0 -658 -1 -689 -18z"/>
<path d="M1874 290 c-110 -55 -110 -216 1 -270 40 -19 62 -20 685 -20 623 0
645 1 685 20 111 54 111 216 0 270 -40 19 -62 20 -686 20 -626 0 -645 -1 -685
-20z"/>
</g>
</svg>
